<svg xmlns="http://www.w3.org/2000/svg" width="148.43" height="160" viewBox="0 0 148.43 160">
    <path data-name="Path 891" d="M28.916 22.051a8.412 8.412 0 0 1 8.412-8.412H89.3a8.412 8.412 0 1 1 0 16.824H37.328a8.412 8.412 0 0 1-8.412-8.412m24.721 22.758a9.679 9.679 0 1 0 9.679-9.679 9.678 9.678 0 0 0-9.679 9.679M96.016 88.42a18.232 18.232 0 0 0-25.784 0h-.005l-19.545 19.545L31.137 88.42a18.238 18.238 0 0 0-25.8 25.789l19.545 19.545L5.34 153.3A18.136 18.136 0 0 0 1.1 160h49.122l.455-.455.455.455h49.127a18.122 18.122 0 0 0-4.229-6.684l-.015-.015-19.544-19.547 19.545-19.545a18.236 18.236 0 0 0 0-25.789m42.016-37V33.723a11.673 11.673 0 0 0-23.346 0v17.691H96.994a11.673 11.673 0 1 0 0 23.346h17.692v17.692a11.673 11.673 0 0 0 23.346 0V74.761h10.4V51.415zM63.316 8.973A9.672 9.672 0 0 0 72.959 0H53.673a9.672 9.672 0 0 0 9.643 8.973" style="fill:#fff;opacity:.096"/>
</svg>
