<svg xmlns="http://www.w3.org/2000/svg" width="24.022" height="24.022" viewBox="0 0 24.022 24.022">
    <defs>
        <clipPath id="uwc83ttuva">
            <path data-name="Rectangle 706" transform="translate(0 .001)" style="fill:none" d="M0 0h24.022v24.022H0z"/>
        </clipPath>
    </defs>
    <g data-name="Group 722" transform="translate(0 -.001)" style="clip-path:url(#uwc83ttuva)">
        <path data-name="Path 893" d="M20.5 3.51A11.933 11.933 0 0 0 12.011 0H12A12.024 12.024 0 0 0 0 12.019a11.785 11.785 0 0 0 1.616 6L.051 22.7A1 1 0 0 0 1 24.022a.985.985 0 0 0 .274-.038l4.992-1.425a12.025 12.025 0 0 0 5.746 1.463h.011A12.011 12.011 0 0 0 20.5 3.51m-1.4 15.573a9.95 9.95 0 0 1-7.076 2.939h-.009a10.017 10.017 0 0 1-5.107-1.4 1 1 0 0 0-.51-.14.981.981 0 0 0-.274.039L2.549 21.54l1.112-3.328a1 1 0 0 0-.107-.857A9.793 9.793 0 0 1 2 12.021 10.023 10.023 0 0 1 12 2h.01a10.011 10.011 0 0 1 7.09 17.083M17.184 8.152a1 1 0 0 1-1 1H7.817a1 1 0 0 1 0-2h8.367a1 1 0 0 1 1 1m0 3.87a1 1 0 0 1-1 1H7.817a1 1 0 0 1 0-2h8.367a1 1 0 0 1 1 1m0 3.87a1 1 0 0 1-1 1H7.817a1 1 0 0 1 0-2h8.367a1 1 0 0 1 1 1" style="fill:#004797"/>
    </g>
</svg>
